<svg width="154" height="35" viewBox="0 0 154 35" fill="none" xmlns="http://www.w3.org/2000/svg">
<g clip-path="url(#clip0_25_7775)">
<path d="M16.7615 6.01383V27.1225L10.3117 20.3149L8.29126 12.9036L11.1024 7.72467L16.7615 6.01383Z" fill="white"/>
<path d="M7.62506 12.9036L10.4871 7.72468L5.18292 9.33194L0.878418 13.9751L7.62506 12.9036Z" fill="white"/>
<path d="M9.82559 20.7435L12.4856 23.4678L11.4877 25.7144L5.61597 27.3511L7.85079 21.5936L9.82559 20.7435Z" fill="white"/>
<path d="M17.1111 5.83333V26.942L23.5608 20.1344L25.5813 12.7231L22.7702 7.54417L17.1111 5.83333Z" fill="white"/>
<path d="M26.5482 12.9036L23.6853 7.72468L28.9895 9.33194L33.294 13.9751L26.5482 12.9036Z" fill="white"/>
<path d="M24.3465 20.7435L21.6865 23.4678L22.6845 25.7144L28.557 27.3511L26.3213 21.5936L24.3465 20.7435Z" fill="white"/>
<path d="M20.029 2.72431V6.13617L17.065 5.22449L14.2319 6.13081V2.72431L17.065 0.803631L20.029 2.72431Z" fill="white"/>
<g clip-path="url(#clip1_25_7775)">
<path d="M43.4465 9.47682H45.6174L50.8017 21.6636H47.8396L46.8123 19.0818H42.1844L41.1913 21.6636H38.2964L43.4465 9.47682ZM44.4567 13.0229L43.0098 16.8103H45.9218L44.4578 13.0229H44.4567Z" fill="white"/>
<path d="M51.9967 9.47682H55.969L58.7123 17.4295H58.7464L61.5057 9.47682H65.4609V21.6636H62.8352V12.3163H62.801L59.6701 21.6636H57.6669L54.6545 12.3163H54.6214V21.6636H51.9956V9.47682H51.9967Z" fill="white"/>
<path d="M71.8059 9.47682H73.9768L79.1611 21.6636H76.199L75.1717 19.0818H70.5437L69.5507 21.6636H66.6558L71.8059 9.47682ZM72.8161 13.0229L71.3692 16.8103H74.2811L72.8171 13.0229H72.8161Z" fill="white"/>
<path d="M80.3564 9.47682H84.9684C85.5739 9.47682 86.1494 9.53689 86.694 9.65702C87.2375 9.77715 87.7149 9.9781 88.1249 10.2599C88.5339 10.5416 88.8596 10.9195 89.1009 11.3956C89.3422 11.8718 89.4629 12.4659 89.4629 13.1769C89.4629 14.0374 89.244 14.7691 88.8062 15.372C88.3684 15.9748 87.7287 16.356 86.8873 16.5165L89.9167 21.6636H86.7698L84.2786 16.7917H82.9822V21.6636H80.3564V9.47682ZM82.9822 14.5201H84.5306C84.7666 14.5201 85.0154 14.5114 85.2791 14.4939C85.5429 14.4765 85.781 14.4251 85.9946 14.3388C86.2082 14.2526 86.3843 14.1182 86.5253 13.9337C86.6652 13.7502 86.7357 13.4925 86.7357 13.1594C86.7357 12.8492 86.6737 12.6024 86.5509 12.4189C86.4271 12.2355 86.2701 12.0946 86.08 11.9974C85.8889 11.9002 85.67 11.8336 85.4233 11.7997C85.1766 11.7659 84.9353 11.7484 84.6993 11.7484H82.9822V14.5201Z" fill="white"/>
<path d="M101.311 16.9643C101.311 17.6872 101.205 18.3523 100.992 18.9606C100.778 19.5689 100.462 20.0964 100.041 20.5442C99.6188 20.9919 99.0956 21.3414 98.4666 21.5948C97.8377 21.847 97.1147 21.9737 96.2957 21.9737C95.4767 21.9737 94.7356 21.847 94.1077 21.5948C93.4788 21.3425 92.9545 20.9919 92.5337 20.5442C92.113 20.0964 91.7959 19.5689 91.5823 18.9606C91.3687 18.3523 91.262 17.6872 91.262 16.9643V9.47682H93.8878V16.8616C93.8878 17.2406 93.9465 17.59 94.065 17.9122C94.1825 18.2333 94.348 18.5118 94.5616 18.7466C94.7751 18.9814 95.0303 19.1659 95.3272 19.297C95.6241 19.4291 95.9476 19.4946 96.2946 19.4946C96.6417 19.4946 96.962 19.4291 97.2536 19.297C97.5451 19.1648 97.7982 18.9814 98.0107 18.7466C98.2242 18.5118 98.3897 18.2333 98.5072 17.9122C98.6247 17.5911 98.6834 17.2406 98.6834 16.8616V9.47682H101.309V16.9643H101.311Z" fill="white"/>
<path d="M109.718 12.455C109.504 12.1798 109.216 11.9755 108.851 11.8434C108.485 11.7113 108.14 11.6457 107.816 11.6457C107.625 11.6457 107.428 11.6687 107.226 11.7145C107.025 11.7604 106.833 11.8325 106.654 11.9297C106.475 12.0269 106.328 12.1568 106.216 12.3163C106.104 12.4768 106.047 12.6723 106.047 12.9016C106.047 13.2697 106.182 13.5504 106.451 13.7447C106.72 13.9402 107.06 14.1062 107.47 14.2438C107.879 14.3814 108.32 14.519 108.791 14.6567C109.262 14.7943 109.703 14.9897 110.112 15.242C110.521 15.4943 110.86 15.8328 111.13 16.2577C111.399 16.6825 111.534 17.2504 111.534 17.9613C111.534 18.6723 111.41 19.2293 111.163 19.7338C110.917 20.2384 110.583 20.6577 110.162 20.9908C109.741 21.3239 109.253 21.5707 108.698 21.7313C108.143 21.8918 107.556 21.9726 106.939 21.9726C106.165 21.9726 105.446 21.8525 104.784 21.6111C104.122 21.3698 103.505 20.9799 102.933 20.4404L104.801 18.3403C105.07 18.7072 105.41 18.9912 105.82 19.1921C106.229 19.3931 106.653 19.4936 107.091 19.4936C107.304 19.4936 107.52 19.4673 107.739 19.416C107.958 19.3647 108.154 19.2872 108.328 19.1834C108.502 19.0797 108.642 18.9486 108.749 18.7881C108.856 18.6275 108.909 18.4375 108.909 18.2202C108.909 17.8532 108.772 17.5627 108.497 17.3509C108.222 17.139 107.877 16.9577 107.462 16.8092C107.047 16.6607 106.598 16.511 106.116 16.3614C105.633 16.2118 105.185 16.0119 104.769 15.7586C104.354 15.5063 104.009 15.1732 103.735 14.7604C103.459 14.3476 103.322 13.8026 103.322 13.1255C103.322 12.4484 103.448 11.898 103.701 11.4044C103.955 10.9108 104.291 10.4979 104.712 10.1648C105.132 9.83176 105.617 9.58276 106.167 9.41567C106.717 9.24967 107.283 9.16558 107.867 9.16558C108.54 9.16558 109.191 9.26277 109.819 9.45826C110.447 9.65375 111.014 9.98028 111.519 10.439L109.718 12.4528V12.455Z" fill="white"/>
<path d="M123.537 16.9642C123.537 17.6872 123.43 18.3523 123.217 18.9606C123.004 19.5689 122.688 20.0964 122.266 20.5441C121.845 20.9919 121.321 21.3414 120.692 21.5947C120.063 21.847 119.34 21.9737 118.521 21.9737C117.702 21.9737 116.961 21.847 116.333 21.5947C115.705 21.3425 115.18 20.9919 114.759 20.5441C114.338 20.0964 114.021 19.5689 113.808 18.9606C113.594 18.3523 113.488 17.6872 113.488 16.9642V9.4768H116.114V16.8616C116.114 17.2405 116.173 17.59 116.291 17.9122C116.409 18.2333 116.574 18.5117 116.788 18.7465C117.001 18.9813 117.257 19.1659 117.554 19.297C117.85 19.4291 118.173 19.4946 118.521 19.4946C118.869 19.4946 119.188 19.4291 119.48 19.297C119.771 19.1648 120.024 18.9813 120.237 18.7465C120.449 18.5117 120.616 18.2333 120.734 17.9122C120.851 17.5911 120.911 17.2405 120.911 16.8616V9.4768H123.537V16.9642Z" fill="white"/>
<path d="M125.927 9.4768H128.552V21.6635H125.927V9.4768Z" fill="white"/>
<path d="M133.248 11.8521H129.848V9.4768H139.273V11.8521H135.873V21.6635H133.248V11.8521Z" fill="white"/>
<path d="M140.703 9.4768H148.798V11.9559H143.328V14.2274H148.495V16.7065H143.328V19.1856H149.101V21.6646H140.702V9.4768H140.703Z" fill="white"/>
<path d="M130.143 28.3635H132.276V28.7993H129.679V24.1207H130.144V28.3625L130.143 28.3635Z" fill="white"/>
<path d="M132.831 28.7993H132.289L134.278 24.1207H134.73L136.719 28.7993H136.177L135.673 27.5707H133.334L132.83 28.7993H132.831ZM133.509 27.1349H135.492L134.503 24.6766L133.508 27.1349H133.509Z" fill="white"/>
<path d="M138.368 28.7993H137.902V24.5576H136.371V24.1218H139.899V24.5576H138.368V28.7993Z" fill="white"/>
<path d="M140.092 28.7993H139.55L141.539 24.1207H141.991L143.98 28.7993H143.438L142.934 27.5707H140.595L140.091 28.7993H140.092ZM140.771 27.1349H142.754L141.766 24.6766L140.77 27.1349H140.771Z" fill="white"/>
<path d="M146.857 27.9278L148.401 24.1218H149.112V28.8004H148.646V24.7563H148.634L146.98 28.8004H146.734L145.08 24.7563H145.067V28.8004H144.602V24.1218H145.312L146.856 27.9278H146.857Z" fill="white"/>
</g>
</g>
<defs>
<clipPath id="clip0_25_7775">
<rect width="154" height="35" fill="white"/>
</clipPath>
<clipPath id="clip1_25_7775">
<rect width="115.704" height="20.4659" fill="white" transform="translate(38.2964 9.16667)"/>
</clipPath>
</defs>
</svg>
