<svg width="67" height="58" viewBox="0 0 67 58" fill="none" xmlns="http://www.w3.org/2000/svg">
<path d="M30.5461 7.40749V33.408L22.4874 25.0227L19.9629 15.8939L23.4752 9.51481L30.5461 7.40749Z" fill="white"/>
<path d="M19.1298 15.8939L22.707 9.51481L16.0796 11.4945L10.7013 17.2138L19.1298 15.8939Z" fill="white"/>
<path d="M21.8801 25.5506L25.2037 28.9063L23.9568 31.6735L16.6193 33.6895L19.4116 26.5977L21.8801 25.5506Z" fill="white"/>
<path d="M31.3575 7.40749V33.408L39.4162 25.0227L41.9407 15.8939L38.4284 9.51481L31.3575 7.40749Z" fill="white"/>
<path d="M42.7735 15.8939L39.1964 9.51481L45.8249 11.4945L51.2032 17.2138L42.7735 15.8939Z" fill="white"/>
<path d="M40.024 25.5506L36.7004 28.9063L37.9462 31.6735L45.2838 33.6895L42.4914 26.5977L40.024 25.5506Z" fill="white"/>
<path d="M34.6281 3.35564V7.55817L30.9248 6.43523L27.385 7.55157V3.35564L30.9248 0.989865L34.6281 3.35564Z" fill="white"/>
</svg>
